<?xml version="1.0" encoding="utf-8"?>
<svg version="1.1" xmlns="http://www.w3.org/2000/svg" xmlns:xlink="http://www.w3.org/1999/xlink" x="0px" y="0px" viewBox="0 0 512 512" style="enable-background:new 0 0 512 512;" xml:space="preserve">
	<path fill="#0CA3D1" d="M256.2,336c44,0,79.8-35.8,79.8-79.8c0-44.4-35.8-80.3-79.8-80.3c-44.4,0-80.3,35.8-80.3,80.3
		C176,300.2,211.8,336,256.2,336L256.2,336z"/>
	<path fill="#E1584B" d="M147.4,228.1c12.7-48.5,56.2-84.4,108.8-84.4h229.9C444.9,59,357.4,0,256.2,0C180,0,112,33.1,65.3,85.3
		L147.4,228.1z"/>
	<path fill="#36B39B" d="M157.8,310.2L44,112.5C16.3,153.7,0,202.7,0,256.2c0,123.3,87.5,226.3,203.6,250.3l82.5-142.4
		c-9.5,2.7-20,4.1-29.9,4.1c-41.7,0-78-22.7-97.1-56.2C158.7,311.6,158.3,311.1,157.8,310.2L157.8,310.2z"/>
	<path fill="#F3AB4B" d="M352.4,312.9L238.1,511.5c5.9,0.5,11.8,0.5,18.1,0.5c141,0,255.8-114.7,255.8-255.8c0-28.1-4.5-54.9-12.7-80.3
		H334.7c20.4,20.4,33.6,48.5,33.6,80.3C368.2,276.6,362.3,296.6,352.4,312.9L352.4,312.9z"/>
</svg>
