<?xml version="1.0" encoding="utf-8"?>
<svg version="1.1" xmlns="http://www.w3.org/2000/svg" xmlns:xlink="http://www.w3.org/1999/xlink" x="0px" y="0px" viewBox="0 0 512 512" style="enable-background:new 0 0 512 512;" xml:space="preserve">
	<path
		d="M251.2,61c-9.1,0-18,0.6-26.8,1.6c-0.6-2.2-1.6-4.2-2.9-5.9c4.6-4.7,7.5-11,7.5-17.9C229,24,215.9,12,199.7,12
		s-29.3,12-29.3,26.8c0,11.9,8.4,21.9,20.1,25.5c-0.2,0.9-0.3,1.9-0.3,2.8c0,0.8,0.1,1.6,0.2,2.3C98,95.8,30.3,180.9,30.3,281.8
		c0,122,98.9,220.8,220.8,220.8S472,403.8,472,281.8S373.1,61,251.2,61z M177.3,38.8c0-11.3,10-20.5,22.3-20.5
		c12.3,0,22.3,9.2,22.3,20.5c0,5.1-2.1,9.8-5.5,13.4c-2.6-1.6-5.7-2.5-8.9-2.5c-6.4,0-11.9,3.4-14.9,8.5
		C183.8,55.6,177.3,47.9,177.3,38.8z M251.2,467.9c-102.8,0-186.1-83.3-186.1-186.1c0-102.8,83.3-186.1,186.1-186.1
		s186.1,83.3,186.1,186.1C437.2,384.6,353.9,467.9,251.2,467.9z"/>
	<path
		d="M101.8,304.5c0-14.3,11.6-25.8,25.8-25.8c11.9,0,22,8.1,24.9,19.1l48-22.3c0.8-6.5,2.8-12.6,5.9-18.1l-22.2-22.2
		l30.4,11.1c4.4-4.5,9.6-8.2,15.3-10.8v-54.8c-1.1,0.2-2.3,0.2-3.5,0.2c-14.3,0-25.8-11.6-25.8-25.8c0-10.8,6.6-20.1,16.1-23.9
		l-2.5-11.4c-41.7,9.5-77.4,34.6-100.7,68.9l13.6,8.7c1.4,0.9,1.9,2.8,1,4.2c-0.9,1.4-2.8,1.8-4.2,0.9l-13.7-8.7
		c-16,25.6-25.3,55.8-25.3,88.2c0,11.1,1.1,21.9,3.2,32.4l14.5-3.2C102.1,308.9,101.8,306.7,101.8,304.5z M250.6,267.6
		c-7.9,0.4-13.9,7-13.6,14.9s7,13.9,14.9,13.6c7.9-0.4,13.9-7,13.6-14.9C265.2,273.3,258.5,267.2,250.6,267.6z M281.5,428.8
		c-1.4,0.2-2.9,0.4-4.3,0.4c-14.3,0-25.8-11.6-25.8-25.8c0-12.3,8.5-22.5,20-25.2l-20.3-45.4c-4.4,0-8.6-0.6-12.7-1.6l4.4-4.1
		c2.7,0.5,5.5,0.8,8.4,0.8c25.4,0,46-20.6,46-46c0-7.1-1.6-13.8-4.5-19.8l3-5c0.1,0.1,0.1,0.2,0.2,0.3l54.6,0.9
		c-0.2-1.4-0.4-2.8-0.4-4.3c0-14.3,11.6-25.8,25.8-25.8c11.6,0,21.4,7.6,24.7,18.1l12.3-2.7c-9.7-41.1-34.7-76.3-68.7-99.3
		l-8.6,13.5c-0.9,1.4-2.8,1.8-4.1,1s-1.8-2.7-0.9-4.2l8.6-13.5c-25.5-16-55.7-25.2-88.1-25.2c-10.6,0-21,1-31.1,2.9l2.4,11
		c1.3-0.2,2.6-0.3,4-0.3c14.3,0,25.8,11.6,25.8,25.8c0,12.1-8.3,22.2-19.5,25l23.8,51.1c2.1,0.2,4.1,0.6,6.2,1l-4.5,4.2
		c-2.3-0.4-4.7-0.6-7.1-0.6c-25.4,0-46,20.6-46,46c0,5.2,0.9,10.3,2.5,15l-3.2,5.4c0-0.1-0.1-0.1-0.1-0.2h-51
		c0.1,0.8,0.1,1.6,0.1,2.5c0,14.3-11.6,25.8-25.8,25.8c-9.9,0-18.5-5.6-22.8-13.8L89.4,320c9.8,41.8,35.5,77.5,70.2,100.5l9.7-15.3
		c0.9-1.4,2.8-1.8,4.1-1c1.4,0.9,1.8,2.7,0.9,4.2l-9.7,15.3c25.2,15.4,54.8,24.3,86.5,24.3c11.6,0,22.9-1.2,33.8-3.5l-3.5-15.7
		C281.5,428.9,281.5,428.8,281.5,428.8z M151.5,403.3l81.3-135.1l0.7-1.1l0.6-0.5l114.2-107.2L267,294.6l-0.7,1.1l-0.6,0.5
		L151.5,403.3z M381,360.5l12.1,7.7c15.4-25.2,24.2-54.8,24.2-86.4c0-11.2-1.1-22-3.2-32.6l-12.4,2.8c0,0.6,0.1,1.2,0.1,1.8
		c0,14.3-11.6,25.8-25.8,25.8c-11.7,0-21.5-7.7-24.7-18.3l-49.1,22c-0.2,6.5-1.6,12.7-4,18.4l22.6,23.3L291,313.6
		c-4,5-8.9,9.2-14.4,12.4l0.8-0.1l-0.8,51.6c0.2,0,0.4,0,0.6,0c14.3,0,25.8,11.6,25.8,25.8c0,10.7-6.5,19.9-15.8,23.8
		c0.1,0.2,0.1,0.3,0.2,0.5l3.5,15.6c41.2-10.1,76.4-35.6,99.2-70l-12.1-7.7c-1.4-0.9-1.9-2.8-1-4.2
		C377.7,360,379.6,359.6,381,360.5z"/>
	<path
		d="M240.6,160.7c0.6,3,1.3,5.9,1.7,7.4c-0.2,0.6-1.4,1.4-2.5,1.6c0,0-2.1-2-4.8-4.3l-13.5-11c-3.4-2.7-5.3-4.3-6.3-4.9
		c-0.1,0.5,0,1.3,0.4,3l1.9,9c0.8,3.7,1.7,7.2,2.5,8.3c0.6,0.9,1.8,1,3,0.9l1.3-0.1c0.4,0.3,0.6,1.3,0.3,1.6
		c-2.5,0.4-4.4,0.8-6.2,1.2c-1.7,0.4-3.4,0.8-5.2,1.2c-0.3-0.2-0.6-1.2-0.3-1.6l0.8-0.3c1.2-0.5,2.1-1,2.2-2.1
		c0.2-1.4-0.3-4.9-1.1-8.6l-2.5-11.8c-0.5-2.5-0.7-3.3-1.2-3.9c-0.5-0.7-1.3-1.1-3-1l-1.3,0.1c-0.4-0.3-0.6-1.4-0.2-1.7
		c2.2-0.4,4.5-0.8,6.4-1.2c1.6-0.3,2.9-0.7,3.9-1c0.9,2,4.7,4.9,9.9,8.9l4.9,3.8c2.5,2,4.2,3.3,5.5,4.2c0.1-0.5-0.1-1.3-0.3-2.1
		l-1.3-6.4c-0.8-3.7-1.7-7.2-2.5-8.3c-0.6-0.9-1.7-1-3-0.9l-1.3,0.1c-0.4-0.3-0.6-1.3-0.3-1.6c2.5-0.4,4.3-0.8,6.2-1.2
		c1.7-0.4,3.4-0.8,5.2-1.2c0.3,0.2,0.6,1.2,0.3,1.6l-0.8,0.3c-1.2,0.4-2,1-2.2,2.1c-0.2,1.4,0.3,4.9,1.1,8.6L240.6,160.7z"/>
	<path
		d="M273.8,387.4c4.3-0.9,7.1-0.3,8.2,0.1c1.1,0.8,2.4,4,3.1,7.2c-0.2,0.7-1.3,0.9-1.7,0.5c-1.6-2.8-5.6-6.4-9.5-5.6
		c-3.4,0.7-4.5,3.4-4,5.7c0.8,3.7,4.8,5.2,7.8,6c3.7,1,7.9,3,8.9,7.5c1.1,5.2-2.2,9.7-8.9,11.1c-1.5,0.3-3.5,0.5-5.4,0.4
		c-0.6-0.1-1.1-0.1-1.7,0c-0.6-0.9-1.6-3.3-2.2-6.4c0.1-0.6,1.3-0.9,1.8-0.5c1.3,2.2,4,5.2,7.3,4.4c3.1-0.6,4.3-3,3.8-5.3
		c-0.4-2.1-2.8-3.7-5.3-4.4l-3.4-1c-3.2-0.9-7.4-2.8-8.5-7.9C262.9,393.6,266.8,388.9,273.8,387.4z"/>
	<path
		d="M112.9,283.9c0.5,1,1,1.6,1.5,1.9c0.8,0.4,2.5,0.8,5.7,1.5c5.9,1.1,18.5,3.7,25,4.7c0.3,0.2,0.6,0.8,0.7,1.4
		c0.1,0.5,0.1,1-0.1,1.3c-1,0.7-2.5,1.8-3.7,2.6l-4,2.9c-1.3,1-2.6,1.9-3.2,2.4c0.9,0.3,2.1,0.6,3.5,0.9l5.2,1.2
		c1.6,0.4,3.1,0.6,4.8,1c0.3,0.2,0.5,0.8,0.7,1.4c0.1,0.5,0,0.8-0.1,1.3c-1.8,1.1-5.6,3.9-8.7,6.2l-15,11.1
		c-2.5,1.8-2.6,2.2-2.6,3.7l0,1.2c-0.4,0.5-1.3,0.6-1.7,0.2c-0.3-1.7-0.6-3.7-1.1-6c-0.4-2-0.9-3.8-1.3-5.6c0.1-0.4,1.2-0.8,1.6-0.4
		l0.3,0.8c0.3,0.8,0.6,1.1,0.9,1c0.3-0.1,2.3-1.5,5.2-3.6l9.3-6.7c2.6-1.9,3.7-2.9,4.7-3.7c-1-0.4-3.4-1-5.3-1.4l-1.5-0.3
		c-0.8-0.2-1.4-0.2-1.7-0.1c-0.3,0.1-1.2,0.6-1.6,0.9l-8.8,6.5c-2.1,1.6-2.3,1.9-2.2,3.7l0.1,0.5c-0.3,0.5-1.4,0.7-1.6,0.2
		c-0.3-2-0.7-3.8-1.1-5.9c-0.5-2.4-0.9-4.1-1.3-5.3c0-0.6,1.3-0.8,1.6-0.5l0.4,0.7c0.3,0.5,0.6,1.2,0.9,1.1c0.4-0.1,0.8-0.4,1.3-0.7
		l2.9-2.1c0.9-0.6,2-1.5,2.8-2.1c-1.1-0.3-2.3-0.5-3.4-0.8l-1-0.2c-1.9-0.4-3.4-0.7-3.7-0.6c-0.3,0.1-0.4,0.3-0.5,1.1l0,1.7
		c-0.3,0.4-1.3,0.6-1.6,0.2c-0.2-1.4-0.5-3-0.8-4.6c-0.4-1.8-0.8-3.5-1.1-4.7c0.2-0.4,1.2-0.7,1.7-0.4l0.6,1.2
		c0.7,1.5,0.7,1.8,3.8,2.9c2.1,0.7,4.7,1.4,6,1.7c0.9,0.2,2.4,0.6,2.6,0.5c0.1,0,0.4-0.1,1.1-0.6l4.2-3.2c2.3-1.7,3.6-2.7,4.2-3.1
		c-5.8-1.1-12.3-2.4-18.4-3.4c-0.9-0.2-3.5-0.5-4-0.4c-0.5,0.1-0.5,0.9-0.6,1.5l-0.1,1.1c-0.3,0.5-1.3,0.6-1.6,0.2
		c-0.2-1.5-0.6-3.4-0.9-4.8c-0.3-1.6-0.7-3-1-4.2c0.1-0.5,1.2-0.7,1.6-0.5L112.9,283.9z"/>
	<path
		d="M377.2,251.6c-1.3,0.3-1.4,0.3-1.1,1.6l0.7,3.2c0.5,2.4,0.9,2.9,3.3,2.9l1.2,0c0.4,0.2,0.7,1.4,0.3,1.7
		c-1.5,0.2-3.2,0.5-4.9,0.9c-1.8,0.4-3.4,0.8-4.9,1.2c-0.5-0.1-0.8-1.3-0.4-1.7l1.1-0.5c2.1-0.9,2.4-1.6,1.9-4l-0.7-3.2
		c-0.3-1.3-0.3-1.3-1.7-1l-5.5,1.2c-2.1,0.4-3.6,0.9-4.2,1.7c-0.7,0.8-0.9,1.7-0.2,5.1c0.8,4,1.3,5.6,7.1,7c0.6,0.3,0.6,1.5,0.1,1.8
		c-2.4,0.3-6.4,0-7.8-0.4c-0.4-2.5-1.3-6.9-2.1-10.7l-1.3-6c-0.5-2.2-1-4.5-1.8-7.9c0.2-0.4,1.3-0.7,1.6-0.3l0.8,2.1
		c0.8,2,1.1,2.2,5.4,1.3l17.3-3.6c4.2-0.9,4.4-1.2,4.4-3.4l0-1.2c0.2-0.5,1.3-0.7,1.6-0.2c0.4,2.2,0.8,4.5,1.3,6.7l2.1,9.8
		c0.6,3,1.2,5.6,1.4,6.2c-0.7,0.2-4,1.2-7,2.1c-0.5-0.1-0.9-1.1-0.5-1.7c1.5-0.9,2.8-1.8,3.3-2.5c0.7-1.1,1-2.6,0.5-4.8l-0.8-3.7
		c-0.3-1.5-0.4-1.5-2.1-1.1L377.2,251.6z"/>
</svg>
