<?xml version="1.0" encoding="utf-8"?>
<svg version="1.1" xmlns="http://www.w3.org/2000/svg" xmlns:xlink="http://www.w3.org/1999/xlink" x="0px" y="0px" viewBox="0 0 32 32" style="enable-background:new 0 0 32 32;" xml:space="preserve">
	<path
		fill="#EA7015"
		d="M32,11.1c0,0.4,0,1.2-0.1,2.3c-0.1,1.1-0.2,2.3-0.4,3.4c-0.2,1.1-0.6,2.3-1.2,3.7c-0.6,1.4-1.3,2.6-2.1,3.7
		c-0.8,1.1-1.9,2.1-3.3,3.1c-1.4,1-3,1.7-4.8,2.1c-1,0.3-1.9,0.4-2.9,0.4c0,0-0.1,0-0.2,0.1c-0.8,0-1.7,0-2.5,0
		c-5.2-0.4-9.1-3-11.8-7.6c-1.3-2.2-2-4.3-2.1-6.3c-0.1,0.6-0.2,1.1-0.3,1.5c-0.1-2.4,0.1-4.3,0.6-5.8c-0.4,0.6-0.6,1.2-0.8,1.8
		c0.3-1.9,0.8-3.4,1.3-4.4c0-0.3,0.3-0.7,0.8-1.4c0-0.1,0-0.1,0-0.2C2,6.3,2.1,5.2,2.4,4.3S3,2.8,3.2,2.5C3.4,2.3,3.6,2.1,3.7,2
		c0,1,0.6,2,1.6,2.9c0.3,0,0.5,0.1,0.7,0.1C7,4.7,8.1,4.8,9.2,5c0.7-0.8,1.7-1.4,3.1-1.7l1.2-0.1C12.2,4,11.5,5,11.3,6.3
		c0.5,1,1.1,1.4,1.8,1.4c0.6,0,1.1,0,1.4,0c0.7,0,1.1,0.1,1.1,0.2V8v0.1c0,0,0,0.1,0,0.2v0.1v0.1c0,0.4-0.2,0.7-0.4,0.9
		c0,0-0.1,0-0.1,0s0,0-0.1,0c0,0-0.2,0.2-0.6,0.4c-0.5,0.3-0.9,0.6-1.2,0.8c-0.5,0.3-0.8,0.6-0.8,0.7v0.1h-0.1
		c0.1,0.3,0.2,0.6,0.3,0.9c0.1,0.4,0.1,0.6,0.1,0.7c0,0.2,0,0.4,0,0.6c-0.5-0.3-1-0.4-1.4-0.5c-0.6,0.3-0.9,0.5-1,0.8
		c0,0.2-0.1,0.3-0.1,0.5c0,0.8,0.6,1.5,1.7,2.2c0.5,0.3,0.9,0.5,1.4,0.5c0.5,0,0.9,0,1.1-0.1c0.3-0.1,0.6-0.2,1-0.4
		c0.4-0.2,0.7-0.3,0.8-0.3c1.3-0.3,2.3,0,3.1,0.9c0.3,0.3,0.3,0.5,0.2,0.7s-0.4,0.3-0.7,0.2c-0.1,0-0.2,0.1-0.2,0c0,0-0.1,0-0.3,0.1
		s-0.2,0.1-0.3,0.1s-0.2,0.1-0.3,0.2c-0.1,0.1-0.3,0.2-0.3,0.2c-0.1,0-0.2,0.1-0.4,0.3s-0.3,0.2-0.5,0.3c-0.5,0.4-1.2,0.6-2.2,0.8
		s-1.7,0.2-2.3,0c0.5,0.4,0.9,0.6,1.2,0.8c0.3,0.2,0.8,0.4,1.4,0.8c0.7,0.4,1.2,0.6,1.7,0.7c0.5,0.1,1.1,0.2,1.8,0.2s1.4-0.1,2-0.4
		c0.6-0.3,1.2-0.7,1.9-1.3c0.7-0.6,1.3-1.4,2-2.3c0.1-0.2,0.2-0.3,0.2-0.4c0.1,0,0,0.6-0.3,1.7c-0.1,0.6-0.2,0.9-0.1,0.9
		c0.7-0.5,1.2-1.5,1.5-2.9c0.3-1.4,0.3-2.8,0.1-4.1c0.5,0.2,0.9,0.6,1.1,1.2l0.1,0.1c0.2-0.8,0.4-1.8,0.4-3.1c0-1.3-0.1-2.3-0.4-3.2
		c0.5,0.2,1,0.7,1.5,1.6c-0.1-0.7-0.3-1.3-0.6-1.8c-0.3-0.6-0.5-1-0.8-1.4c-0.3-0.4-0.6-0.8-1-1.1s-0.7-0.6-1.1-0.9
		c-0.4-0.2-0.7-0.4-1.1-0.6c-0.4-0.2-0.7-0.3-1-0.4c-0.3-0.1-0.6-0.2-0.8-0.3c-0.3-0.1-0.4-0.1-0.6-0.1c-0.1,0-0.2,0-0.1,0
		c1-0.3,2.1-0.4,3.2-0.4C24,3,23.8,2.9,23.4,2.7c-0.4-0.2-0.7-0.3-1.2-0.4C21.8,2.1,21.4,2,21,1.9c-0.4-0.1-0.9-0.2-1.4-0.3h-0.1
		h0.1c1.2-0.3,3-0.1,5.5,0.8c0.9,0.3,1.8,0.8,2.5,1.6c0.8,0.8,1.2,1.3,1.4,1.7c0.2,0.4,0.3,0.7,0.4,0.9V6.4c0-0.2,0-0.5-0.1-1
		C29.3,5,29.1,4.5,28.9,4c0,0,0.1,0,0.2,0.1c0.1,0.1,0.2,0.3,0.5,0.7c0.2,0.4,0.5,1,0.8,1.7c0.5,1.1,0.9,3.1,1.2,6.1l0.4-2.4
		C32,10.4,32,10.7,32,11.1z"/>
</svg>
