<?xml version="1.0" encoding="utf-8"?>
<svg version="1.1" xmlns="http://www.w3.org/2000/svg" xmlns:xlink="http://www.w3.org/1999/xlink" x="0px" y="0px" viewBox="0 0 32 32" style="enable-background:new 0 0 32 32;" xml:space="preserve">
	<path
		fill="#188FD1"
		d="M11.5,18.9L11.5,18.9c0,1.1,0.2,2.1,0.7,3.1c0.6,1,1.3,1.8,2.3,2.4c1,0.6,2.1,0.9,3.3,0.9s2.3-0.3,3.3-0.9
		c1-0.6,1.8-1.4,2.3-2.4h7.8c-1,2.8-2.8,5.2-5.3,7c-2.5,1.8-5.3,2.7-8.4,2.7c-2.3,0-4.5-0.5-6.6-1.5c-4.6,2.2-7.9,2.3-9.9,0.3
		C0.4,29.9,0,28.8,0,27.3c0-1.5,0.3-3.2,0.9-5.1c0.6-1.9,1.6-4,3-6.2c1.4-2.3,3-4.3,4.9-6.1c1.1-1.1,1.8-1.8,2.1-2.1
		C8.2,9,5.7,11.1,3.5,13.8C4.3,10.6,6,8,8.6,5.9c2.6-2.1,5.6-3.1,9-3.1c0.4,0,0.7,0,1.1,0.1c2.5-1.1,4.7-1.7,6.7-1.8
		c2-0.1,3.4,0.2,4.3,1c1.7,1.7,1.8,4.4,0.5,8c1.3,2.2,1.9,4.6,1.9,7.2c0,0.6,0,1.2-0.1,1.6h-7.8L11.5,18.9L11.5,18.9z M10.1,29.7
		c-2.9-1.8-5-4.3-6.2-7.6c-2,3.9-2.2,6.5-0.8,7.9C4.4,31.4,6.7,31.2,10.1,29.7z M23.6,15.1c-0.1-1.6-0.7-2.9-1.9-4
		c-1.2-1.1-2.6-1.7-4.2-1.7c-1.6,0-3,0.6-4.2,1.7c-1.2,1.1-1.8,2.5-1.9,4H23.6z M22.9,3.9c2.8,1.1,5,3,6.7,5.5c1-2.7,1-4.6-0.1-5.7
		C28.3,2.5,26.1,2.5,22.9,3.9z"/>
</svg>
